HIERARCHY
ROOT Hips
{
	OFFSET 0.000000 121.760803 0.000000
	CHANNELS 6 Xposition Yposition Zposition Xrotation Yrotation Zrotation 
	JOINT Spine
	{
		OFFSET 0.072000 7.257294 -0.789700
		CHANNELS 3 Xrotation Yrotation Zrotation
		JOINT Spine1
		{
			OFFSET 0.000000 12.508769 -0.658067
			CHANNELS 3 Xrotation Yrotation Zrotation
			JOINT Spine1_split
			{
				OFFSET 0.000000 12.508769 -0.658067
				CHANNELS 3 Xrotation Yrotation Zrotation
				JOINT Spine2
				{
					OFFSET 0.000000 12.508769 -0.658067
					CHANNELS 3 Xrotation Yrotation Zrotation
					JOINT Neck
					{
						OFFSET 0.000000 14.033295 7.520400
						CHANNELS 3 Xrotation Yrotation Zrotation
						JOINT Head
						{
							OFFSET 0.000000 8.198502 5.703100
							CHANNELS 3 Xrotation Yrotation Zrotation
							JOINT HeadTop_End
							{
								OFFSET 0.000000 17.760803 13.332701
								CHANNELS 3 Xrotation Yrotation Zrotation
								End Site
								{
									OFFSET 0.000000 0.000000 0.000000
								}
							}
						}
					}
					JOINT LeftShoulder
					{
						OFFSET 6.292450 5.785301 -0.669000
						CHANNELS 3 Xrotation Yrotation Zrotation
						JOINT LeftShoulder_split
						{
							OFFSET 6.292450 5.785301 -0.669000
							CHANNELS 3 Xrotation Yrotation Zrotation
							JOINT LeftArm
							{
								OFFSET 13.907140 -6.093903 1.965100
								CHANNELS 3 Xrotation Yrotation Zrotation
								JOINT LeftForeArm
								{
									OFFSET 34.140198 0.000000 0.000000
									CHANNELS 3 Xrotation Yrotation Zrotation
									JOINT LeftHand
									{
										OFFSET 40.960209 0.000000 0.000000
										CHANNELS 3 Xrotation Yrotation Zrotation
										JOINT LeftHandThumb1
										{
											OFFSET 10.006996 -7.170425 9.573125
											CHANNELS 3 Xrotation Yrotation Zrotation
											JOINT LeftHandThumb2
											{
												OFFSET 1.835007 -1.059448 1.059443
												CHANNELS 3 Xrotation Yrotation Zrotation
												JOINT LeftHandThumb3
												{
													OFFSET 2.112267 -1.219513 1.219518
													CHANNELS 3 Xrotation Yrotation Zrotation
													JOINT LeftHandThumb4
													{
														OFFSET 4.843811 -2.796570 2.796576
														CHANNELS 3 Xrotation Yrotation Zrotation
														End Site
														{
															OFFSET 0.000000 0.000000 0.000000
														}
													}
												}
											}
										}
										JOINT LeftHandIndex1
										{
											OFFSET 18.389847 -0.922348 4.596882
											CHANNELS 3 Xrotation Yrotation Zrotation
											JOINT LeftHandIndex2
											{
												OFFSET 4.711273 0.000000 0.000000
												CHANNELS 3 Xrotation Yrotation Zrotation
												JOINT LeftHandIndex3
												{
													OFFSET 2.886131 0.000000 0.000000
													CHANNELS 3 Xrotation Yrotation Zrotation
													JOINT LeftHandIndex4
													{
														OFFSET 6.145912 0.000000 0.000000
														CHANNELS 3 Xrotation Yrotation Zrotation
														End Site
														{
															OFFSET 0.000000 0.000000 0.000000
														}
													}
												}
											}
										}
										JOINT LeftHandMiddle1
										{
											OFFSET 18.013008 0.000000 0.000000
											CHANNELS 3 Xrotation Yrotation Zrotation
											JOINT LeftHandMiddle2
											{
												OFFSET 4.946693 0.000000 0.000000
												CHANNELS 3 Xrotation Yrotation Zrotation
												JOINT LeftHandMiddle3
												{
													OFFSET 3.342232 0.000000 0.000000
													CHANNELS 3 Xrotation Yrotation Zrotation
													JOINT LeftHandMiddle4
													{
														OFFSET 4.461754 0.000000 0.000000
														CHANNELS 3 Xrotation Yrotation Zrotation
														End Site
														{
															OFFSET 0.000000 0.000000 0.000000
														}
													}
												}
											}
										}
										JOINT LeftHandRing1
										{
											OFFSET 15.849892 -0.102921 -4.126150
											CHANNELS 3 Xrotation Yrotation Zrotation
											JOINT LeftHandRing2
											{
												OFFSET 3.527054 0.000000 0.000000
												CHANNELS 3 Xrotation Yrotation Zrotation
												JOINT LeftHandRing3
												{
													OFFSET 2.961098 0.000000 0.000000
													CHANNELS 3 Xrotation Yrotation Zrotation
													JOINT LeftHandRing4
													{
														OFFSET 4.927200 0.000000 0.000000
														CHANNELS 3 Xrotation Yrotation Zrotation
														End Site
														{
															OFFSET 0.000000 0.000000 0.000000
														}
													}
												}
											}
										}
										JOINT LeftHandPinky1
										{
											OFFSET 12.791824 -0.832031 -6.799156
											CHANNELS 3 Xrotation Yrotation Zrotation
											JOINT LeftHandPinky2
											{
												OFFSET 3.327133 0.000000 0.000000
												CHANNELS 3 Xrotation Yrotation Zrotation
												JOINT LeftHandPinky3
												{
													OFFSET 3.014900 0.000000 0.000000
													CHANNELS 3 Xrotation Yrotation Zrotation
													JOINT LeftHandPinky4
													{
														OFFSET 5.847786 0.000000 0.000000
														CHANNELS 3 Xrotation Yrotation Zrotation
														End Site
														{
															OFFSET 0.000000 0.000000 0.000000
														}
													}
												}
											}
										}
									}
								}
							}
						}
					}
					JOINT RightShoulder
					{
						OFFSET -6.292450 5.785301 -0.669000
						CHANNELS 3 Xrotation Yrotation Zrotation
						JOINT RightShoulder_split
						{
							OFFSET -6.292450 5.785301 -0.669000
							CHANNELS 3 Xrotation Yrotation Zrotation
							JOINT RightArm
							{
								OFFSET -13.907140 -6.093903 1.965100
								CHANNELS 3 Xrotation Yrotation Zrotation
								JOINT RightForeArm
								{
									OFFSET -34.140198 0.000000 0.000000
									CHANNELS 3 Xrotation Yrotation Zrotation
									JOINT RightHand
									{
										OFFSET -40.960209 0.000000 0.000000
										CHANNELS 3 Xrotation Yrotation Zrotation
										JOINT RightHandThumb1
										{
											OFFSET -10.007050 -7.170456 9.573117
											CHANNELS 3 Xrotation Yrotation Zrotation
											JOINT RightHandThumb2
											{
												OFFSET -1.835007 -1.059448 1.059443
												CHANNELS 3 Xrotation Yrotation Zrotation
												JOINT RightHandThumb3
												{
													OFFSET -2.112267 -1.219513 1.219518
													CHANNELS 3 Xrotation Yrotation Zrotation
													JOINT RightHandThumb4
													{
														OFFSET -4.843834 -2.796585 2.796590
														CHANNELS 3 Xrotation Yrotation Zrotation
														End Site
														{
															OFFSET 0.000000 0.000000 0.000000
														}
													}
												}
											}
										}
										JOINT RightHandIndex1
										{
											OFFSET -18.389870 -0.922424 4.596786
											CHANNELS 3 Xrotation Yrotation Zrotation
											JOINT RightHandIndex2
											{
												OFFSET -4.711273 0.000000 0.000000
												CHANNELS 3 Xrotation Yrotation Zrotation
												JOINT RightHandIndex3
												{
													OFFSET -2.886131 0.000000 0.000000
													CHANNELS 3 Xrotation Yrotation Zrotation
													JOINT RightHandIndex4
													{
														OFFSET -6.145920 0.000000 0.000000
														CHANNELS 3 Xrotation Yrotation Zrotation
														End Site
														{
															OFFSET 0.000000 0.000000 0.000000
														}
													}
												}
											}
										}
										JOINT RightHandMiddle1
										{
											OFFSET -18.013008 0.000000 0.000000
											CHANNELS 3 Xrotation Yrotation Zrotation
											JOINT RightHandMiddle2
											{
												OFFSET -4.946693 0.000000 0.000000
												CHANNELS 3 Xrotation Yrotation Zrotation
												JOINT RightHandMiddle3
												{
													OFFSET -3.342232 0.000000 0.000000
													CHANNELS 3 Xrotation Yrotation Zrotation
													JOINT RightHandMiddle4
													{
														OFFSET -4.461754 0.000000 0.000000
														CHANNELS 3 Xrotation Yrotation Zrotation
														End Site
														{
															OFFSET 0.000000 0.000000 0.000000
														}
													}
												}
											}
										}
										JOINT RightHandRing1
										{
											OFFSET -15.849876 -0.102936 -4.126237
											CHANNELS 3 Xrotation Yrotation Zrotation
											JOINT RightHandRing2
											{
												OFFSET -3.527054 0.000000 0.000000
												CHANNELS 3 Xrotation Yrotation Zrotation
												JOINT RightHandRing3
												{
													OFFSET -2.961098 0.000000 0.000000
													CHANNELS 3 Xrotation Yrotation Zrotation
													JOINT RightHandRing4
													{
														OFFSET -4.927200 0.000000 0.000000
														CHANNELS 3 Xrotation Yrotation Zrotation
														End Site
														{
															OFFSET 0.000000 0.000000 0.000000
														}
													}
												}
											}
										}
										JOINT RightHandPinky1
										{
											OFFSET -12.791786 -0.832077 -6.799222
											CHANNELS 3 Xrotation Yrotation Zrotation
											JOINT RightHandPinky2
											{
												OFFSET -3.327133 0.000000 0.000000
												CHANNELS 3 Xrotation Yrotation Zrotation
												JOINT RightHandPinky3
												{
													OFFSET -3.014900 0.000000 0.000000
													CHANNELS 3 Xrotation Yrotation Zrotation
													JOINT RightHandPinky4
													{
														OFFSET -5.847786 0.000000 0.000000
														CHANNELS 3 Xrotation Yrotation Zrotation
														End Site
														{
															OFFSET 0.000000 0.000000 0.000000
														}
													}
												}
											}
										}
									}
								}
							}
						}
					}
				}
			}
		}
	}
	JOINT LeftUpLeg
	{
		OFFSET 13.026900 -6.336304 -1.092800
		CHANNELS 3 Xrotation Yrotation Zrotation
		JOINT LeftLeg
		{
			OFFSET 0.524474 -46.096886 9.782700
			CHANNELS 3 Xrotation Yrotation Zrotation
			JOINT LeftFoot
			{
				OFFSET -0.524474 -53.427422 -12.948200
				CHANNELS 3 Xrotation Yrotation Zrotation
				JOINT LeftToeBase
				{
					OFFSET 0.192200 -14.009700 16.364100
					CHANNELS 3 Xrotation Yrotation Zrotation
					JOINT LeftToe_End
					{
						OFFSET -1.784700 -0.561700 9.474800
						CHANNELS 3 Xrotation Yrotation Zrotation
						End Site
						{
							OFFSET 0.000000 0.000000 0.000000
						}
					}
				}
			}
		}
	}
	JOINT RightUpLeg
	{
		OFFSET -12.883000 -6.336304 -1.092800
		CHANNELS 3 Xrotation Yrotation Zrotation
		JOINT RightLeg
		{
			OFFSET -0.524587 -46.096825 9.782800
			CHANNELS 3 Xrotation Yrotation Zrotation
			JOINT RightFoot
			{
				OFFSET 0.524587 -53.427383 -12.948300
				CHANNELS 3 Xrotation Yrotation Zrotation
				JOINT RightToeBase
				{
					OFFSET -0.192200 -14.009700 16.364100
					CHANNELS 3 Xrotation Yrotation Zrotation
					JOINT RightToe_End
					{
						OFFSET 1.784700 -0.561700 9.474800
						CHANNELS 3 Xrotation Yrotation Zrotation
						End Site
						{
							OFFSET 0.000000 0.000000 0.000000
						}
					}
				}
			}
		}
	}
}
MOTION
Frames: 4
Frame Time: 0.016667
0.109717 134.250885 -0.335457 -89.648562 0.358332 0.721978 1.066778 -1.178770 0.953538 -0.317547 -2.434543 0.230484 0.000000 0.000000 0.000000 -0.303419 -2.418347 0.331942 -10.007545 0.108424 -1.808069 8.693202 -2.170252 1.510697 -0.000000 -0.000000 -0.000000 0.422254 -0.102940 -3.997469 0.000000 0.000000 0.000000 35.266551 -28.376685 -54.536957 -0.000189 -80.459615 -0.000200 -13.956467 -3.099379 -10.083758 6.590539 -4.958660 16.122653 7.178835 21.567330 2.147326 -3.980788 36.507508 21.976002 0.000000 0.000001 0.000000 0.659518 4.932355 -26.024469 0.169789 1.401616 -13.813544 0.169798 1.401613 -13.813549 -0.000005 0.000000 0.000000 1.376931 6.461966 -24.994176 0.169872 1.401969 -13.817107 0.169784 1.401613 -13.813568 -0.000001 0.000003 0.000001 2.098715 8.644301 -21.209679 0.169793 1.401610 -13.813547 0.169787 1.401614 -13.813544 -0.000005 0.000001 -0.000001 2.123427 10.735876 -14.817564 0.167497 1.392247 -13.719352 0.169811 1.401718 -13.814465 0.000000 -0.000003 -0.000001 0.672259 1.791887 13.905692 0.000000 0.000000 0.000000 39.524437 30.882058 33.636349 -0.000196 101.353368 0.000181 -34.912000 -9.308811 11.148392 -13.115374 7.814923 -0.093432 7.918249 -27.751663 -3.100778 -2.785612 -37.960689 -21.297233 -0.000001 0.000000 -0.000000 2.082837 12.897804 37.347464 0.497048 -2.095302 26.687149 0.497046 -2.095309 26.687151 -0.000001 0.000001 0.000003 -4.321327 1.650212 38.533486 0.529967 -2.159507 27.573969 0.497631 -2.096482 26.703349 0.000001 -0.000001 0.000001 -1.394398 -1.262390 31.742017 0.254164 -1.518990 18.997020 0.249580 -1.505611 18.823339 0.000001 -0.000001 -0.000000 0.189701 -3.422251 14.147221 0.162225 -1.219713 15.150968 0.162218 -1.219715 15.150963 -0.000003 0.000001 0.000001 -5.172229 17.352869 19.148051 4.131934 7.439941 0.328678 29.612371 29.470405 -30.980143 -4.397756 0.000008 -0.000015 0.000001 0.000001 0.000000 -4.355189 -17.130825 -12.371302 3.268976 -7.172429 -7.616808 38.788030 -29.663310 30.901835 -9.126062 0.000005 -0.000016 -0.000000 0.000001 -0.000000 
0.113175 134.249176 -0.325989 -89.647899 0.358486 0.717394 1.067419 -1.312299 0.958479 -0.267800 -2.803663 0.269862 0.000000 0.000000 0.000000 -0.275045 -2.540292 0.378853 -10.308426 0.108421 -1.848248 8.590534 -2.164041 1.438075 0.000000 0.000001 0.000000 0.286876 1.338427 -4.208841 0.000000 0.000000 0.000000 35.597399 -28.973939 -53.870679 -0.000029 -80.449854 -0.000035 -14.006698 -2.990130 -10.115713 6.590539 -4.958658 16.122651 7.178840 21.567326 2.147321 -3.980795 36.507515 21.976004 0.000002 0.000001 0.000000 0.659523 4.932352 -26.024467 0.169791 1.401615 -13.813544 0.169799 1.401614 -13.813548 0.000001 -0.000002 -0.000003 1.376931 6.461963 -24.994174 0.169871 1.401965 -13.817109 0.169786 1.401618 -13.813565 -0.000001 -0.000001 0.000001 2.098720 8.644299 -21.209681 0.169796 1.401606 -13.813549 0.169787 1.401610 -13.813547 -0.000003 -0.000003 -0.000001 2.123428 10.735877 -14.817564 0.167500 1.392245 -13.719353 0.169810 1.401717 -13.814462 -0.000001 -0.000003 0.000002 0.632468 1.910001 13.900109 0.000000 0.000000 0.000000 39.216795 31.338462 32.961636 0.000356 101.514014 -0.000326 -32.241546 -5.778567 11.438756 -12.649667 7.487831 0.310911 7.918249 -27.751663 -3.100774 -2.801543 -37.397574 -21.178632 -0.000001 0.000000 -0.000001 1.826888 12.388912 38.175666 0.531862 -2.163118 27.624084 0.490647 -2.082547 26.511741 0.000001 0.000000 0.000001 -4.275613 1.292272 39.774613 0.580791 -2.254089 28.893749 0.545543 -2.189061 27.984574 -0.000000 -0.000001 0.000001 -1.400941 -1.500342 33.624311 0.307053 -1.664660 20.900895 0.301735 -1.650644 20.716695 0.000002 -0.000001 0.000001 0.245547 -3.624128 16.721710 0.221501 -1.420584 17.723393 0.221489 -1.420586 17.723395 0.000001 -0.000000 0.000000 -5.155743 17.331620 19.169464 4.200220 7.460021 0.312301 29.623808 29.466123 -30.948782 -4.437277 0.000008 0.000000 0.000000 0.000001 -0.000000 -4.379081 -17.128216 -12.367330 3.301051 -7.174007 -7.634703 38.756331 -29.668979 30.907357 -9.100865 -0.000007 0.000010 -0.000000 0.000000 0.000000 
0.109133 134.254974 -0.314850 -89.647080 0.357315 0.721662 1.073670 -1.496561 0.956169 -0.122009 -3.167864 0.318246 0.000000 0.000000 0.000000 -0.192736 -2.885990 0.467762 -10.438603 0.101445 -1.869203 8.494244 -2.149574 1.244425 -0.000000 -0.000001 0.000000 0.143295 2.780179 -4.408304 0.000000 0.000000 0.000000 35.798084 -29.342127 -53.527991 0.000063 -80.441139 0.000094 -13.903222 -3.035547 -10.126514 6.590542 -4.958664 16.122651 7.178846 21.567328 2.147327 -3.980798 36.507511 21.975999 0.000003 0.000000 -0.000003 0.659522 4.932344 -26.024470 0.169793 1.401618 -13.813545 0.169801 1.401615 -13.813550 -0.000000 0.000000 -0.000002 1.376933 6.461958 -24.994174 0.169872 1.401965 -13.817107 0.169785 1.401620 -13.813563 0.000001 0.000001 0.000001 2.098719 8.644295 -21.209681 0.169796 1.401612 -13.813549 0.169786 1.401610 -13.813547 -0.000001 -0.000001 -0.000001 2.123428 10.735872 -14.817568 0.167500 1.392244 -13.719351 0.169810 1.401718 -13.814464 0.000001 0.000001 0.000000 0.595532 2.019713 13.895002 0.000000 0.000000 0.000000 37.989399 32.092303 32.256340 -0.000096 101.960060 0.000145 -30.034258 -3.162343 11.679206 -12.147799 7.137450 0.751207 7.918247 -27.751665 -3.100777 -2.820191 -36.790507 -21.051499 -0.000003 -0.000002 -0.000001 1.566997 11.835571 39.062197 0.570623 -2.235586 28.634258 0.483803 -2.068770 26.322677 0.000000 0.000001 -0.000002 -4.213785 0.910816 41.113473 0.638008 -2.354709 30.316744 0.599498 -2.287643 29.366050 -0.000001 -0.000002 0.000001 -1.397916 -1.756069 35.653987 0.369472 -1.819641 22.953764 0.363293 -1.804977 22.758223 -0.000000 -0.000000 -0.000005 0.315879 -3.838715 19.498127 0.295439 -1.633924 20.497210 0.295445 -1.633921 20.497212 -0.000002 0.000000 -0.000002 -5.154488 17.326807 19.174136 4.237435 7.466235 0.287165 29.668173 29.465064 -30.951631 -4.495494 0.000003 0.000008 0.000000 0.000000 -0.000000 -4.391085 -17.125654 -12.351830 3.350336 -7.162703 -7.672791 38.650517 -29.708225 30.890842 -9.020926 -0.000006 -0.000002 0.000001 0.000002 -0.000001 
0.095150 134.256744 -0.297249 -89.642176 0.338853 0.731962 1.021208 -1.616470 0.948632 -0.004339 -3.399447 0.363599 0.000000 0.000000 0.000000 -0.116516 -3.107312 0.517953 -10.409527 0.091391 -1.902494 8.391086 -2.126794 0.943352 0.000000 0.000000 -0.000000 -0.087596 3.411968 -4.598579 0.000000 0.000000 0.000000 36.070249 -29.254721 -53.441603 -0.000180 -80.534112 -0.000160 -13.803836 -3.053153 -10.111807 6.590541 -4.958658 16.122648 7.178841 21.567326 2.147328 -3.980793 36.507505 21.976002 0.000003 -0.000001 -0.000001 0.659523 4.932353 -26.024467 0.169791 1.401619 -13.813545 0.169796 1.401609 -13.813547 0.000002 -0.000002 -0.000003 1.376934 6.461964 -24.994174 0.169873 1.401967 -13.817111 0.169784 1.401620 -13.813567 0.000001 0.000002 -0.000000 2.098719 8.644302 -21.209681 0.169795 1.401610 -13.813546 0.169788 1.401612 -13.813545 -0.000001 0.000001 -0.000000 2.123433 10.735878 -14.817563 0.167505 1.392243 -13.719352 0.169810 1.401714 -13.814467 -0.000002 0.000000 0.000002 0.552937 2.146241 13.889202 0.000000 0.000000 0.000000 36.351278 32.916225 31.673069 -0.000119 102.444621 0.000126 -28.112837 -0.954749 11.594366 -11.615827 6.768545 1.222980 7.918246 -27.751663 -3.100776 -2.841624 -36.146809 -20.917492 -0.000002 0.000002 -0.000000 1.309543 11.243910 39.995306 0.613127 -2.311666 29.705531 0.476590 -2.054138 26.122152 0.000000 0.000000 0.000001 -4.134199 0.511803 42.534255 0.701405 -2.459822 31.825915 0.659301 -2.390723 30.831091 0.000000 0.000000 0.000003 -1.383341 -2.025844 37.806675 0.441693 -1.981422 25.130923 0.434540 -1.966119 24.923338 0.000000 -0.000000 -0.000001 0.401766 -4.062264 22.443199 0.385039 -1.855941 23.439092 0.385037 -1.855944 23.439088 0.000001 0.000001 -0.000002 -5.156784 17.318701 19.189218 4.290543 7.498218 0.256892 29.704025 29.464125 -30.960138 -4.542710 0.000021 -0.000002 0.000000 0.000002 0.000000 -4.421529 -17.118633 -12.328812 3.431802 -7.144032 -7.728120 38.472188 -29.765534 30.862804 -8.894403 0.000001 0.000005 -0.000000 0.000000 0.000001 
